<svg width="18" height="18" viewBox="0 0 18 18" fill="none" xmlns="http://www.w3.org/2000/svg">
<path d="M9.00002 0.66922C4.40502 0.66922 0.666687 4.40672 0.666687 9.00259V15.6693C0.666687 16.5893 1.41252 17.3359 2.33335 17.3359H4.00002C4.92002 17.3359 5.66669 16.5893 5.66669 15.6693V13.1693C5.66669 12.2493 4.92002 11.5026 4.00002 11.5026H2.33335V9.00259C2.33335 5.32589 5.32419 2.33589 9.00002 2.33589C12.6759 2.33589 15.6667 5.32589 15.6667 9.00259V11.5026H14C13.08 11.5026 12.3334 12.2493 12.3334 13.1693V15.6693C12.3334 16.5893 13.08 17.3359 14 17.3359H15.6667C16.5867 17.3359 17.3334 16.5893 17.3334 15.6693V9.00259C17.3334 4.40672 13.595 0.66922 9.00002 0.66922Z" fill="#B9BBBE"/>
</svg>
