<svg width="123" height="13" viewBox="0 0 123 13" fill="none" xmlns="http://www.w3.org/2000/svg">
<path d="M6.364 10V5.548H1.478V10H0.162V0.339999H1.478V4.344H6.364V0.339999H7.68V10H6.364ZM15.6198 6.668C15.6198 7.21867 15.5404 7.70867 15.3818 8.138C15.2324 8.56733 15.0178 8.93133 14.7378 9.23C14.4578 9.52867 14.1264 9.75733 13.7438 9.916C13.3704 10.0653 12.9598 10.14 12.5118 10.14C12.0638 10.14 11.6531 10.0653 11.2798 9.916C10.9064 9.75733 10.5844 9.52867 10.3138 9.23C10.0431 8.93133 9.82842 8.56733 9.66975 8.138C9.52042 7.70867 9.44575 7.21867 9.44575 6.668C9.44575 6.11733 9.52042 5.62733 9.66975 5.198C9.82842 4.76867 10.0431 4.40467 10.3138 4.106C10.5844 3.80733 10.9064 3.57867 11.2798 3.42C11.6531 3.26133 12.0638 3.182 12.5118 3.182C12.9598 3.182 13.3704 3.26133 13.7438 3.42C14.1264 3.57867 14.4578 3.80733 14.7378 4.106C15.0178 4.40467 15.2324 4.76867 15.3818 5.198C15.5404 5.62733 15.6198 6.11733 15.6198 6.668ZM14.3598 6.668C14.3598 6.32267 14.3178 6.00067 14.2338 5.702C14.1591 5.40333 14.0424 5.14667 13.8838 4.932C13.7344 4.708 13.5431 4.53533 13.3098 4.414C13.0764 4.28333 12.8104 4.218 12.5118 4.218C12.2131 4.218 11.9471 4.28333 11.7138 4.414C11.4898 4.53533 11.3031 4.70333 11.1538 4.918C11.0044 5.13267 10.8924 5.394 10.8178 5.702C10.7431 6.00067 10.7058 6.32267 10.7058 6.668C10.7058 7.01333 10.7431 7.33533 10.8178 7.634C10.9018 7.92333 11.0184 8.18 11.1678 8.404C11.3171 8.61867 11.5038 8.79133 11.7278 8.922C11.9518 9.04333 12.2131 9.104 12.5118 9.104C12.8198 9.104 13.0858 9.04333 13.3098 8.922C13.5431 8.80067 13.7344 8.63267 13.8838 8.418C14.0424 8.194 14.1591 7.93733 14.2338 7.648C14.3178 7.34933 14.3598 7.02267 14.3598 6.668ZM22.6386 8.04C22.6386 8.712 22.3959 9.20667 21.9106 9.524C21.4252 9.84133 20.7719 10 19.9506 10H17.2066V3.322H20.0206C20.8326 3.322 21.4299 3.48067 21.8126 3.798C22.2046 4.106 22.4006 4.512 22.4006 5.016C22.4006 5.436 22.2979 5.75333 22.0926 5.968C21.8872 6.17333 21.6352 6.34133 21.3366 6.472H21.3506C21.7332 6.584 22.0459 6.766 22.2886 7.018C22.5312 7.26067 22.6479 7.60133 22.6386 8.04ZM21.1826 5.156C21.1826 4.904 21.0846 4.708 20.8886 4.568C20.6926 4.41867 20.3752 4.344 19.9366 4.344H18.3966V6.024H19.9506C20.3799 6.024 20.6926 5.94933 20.8886 5.8C21.0846 5.65067 21.1826 5.436 21.1826 5.156ZM21.4066 8.012C21.4066 7.68533 21.2946 7.438 21.0706 7.27C20.8466 7.09267 20.4919 7.004 20.0066 7.004H18.3966V8.978H19.9366C20.3939 8.978 20.7532 8.90333 21.0146 8.754C21.2759 8.60467 21.4066 8.35733 21.4066 8.012ZM30.2826 10V3.322H31.5286V10H30.2826ZM29.1346 7.76C29.1346 8.46933 28.8872 9.02 28.3926 9.412C27.8979 9.804 27.2446 10 26.4326 10H24.2066V3.322H25.4526V5.59H26.5446C27.3939 5.59 28.0379 5.78133 28.4766 6.164C28.9152 6.53733 29.1346 7.06933 29.1346 7.76ZM27.9306 7.774C27.9306 7.41 27.8139 7.13 27.5806 6.934C27.3566 6.72867 26.9926 6.626 26.4886 6.626H25.4526V8.964H26.4606C26.9366 8.964 27.3006 8.86133 27.5526 8.656C27.8046 8.44133 27.9306 8.14733 27.9306 7.774ZM33.4898 3.322H34.7078V8.236L37.8998 3.322H39.1598V10H37.9418V5.086L34.7358 10H33.4898V3.322ZM38.3058 0.704C38.2031 1.21733 37.9931 1.61867 37.6758 1.908C37.3584 2.188 36.9011 2.328 36.3038 2.328C35.7438 2.328 35.3004 2.19267 34.9738 1.922C34.6564 1.642 34.4464 1.236 34.3438 0.704L35.1838 0.521999C35.2584 0.783333 35.3844 0.984 35.5618 1.124C35.7484 1.264 36.0051 1.334 36.3318 1.334C36.6491 1.334 36.8964 1.264 37.0738 1.124C37.2511 0.984 37.3771 0.783333 37.4518 0.521999L38.3058 0.704ZM44.1948 3.322H48.3668L48.5208 4.428H45.4408V10H44.1948V3.322ZM55.7777 6.472C55.7777 7.07867 55.6937 7.61067 55.5257 8.068C55.367 8.516 55.1477 8.88933 54.8677 9.188C54.597 9.48667 54.275 9.71067 53.9017 9.86C53.5377 10.0093 53.155 10.084 52.7537 10.084C52.427 10.084 52.119 10.056 51.8297 10C51.5403 9.944 51.2883 9.874 51.0737 9.79V12.422L49.8277 12.604V3.322H50.8217L50.9757 4.288C51.2277 3.98933 51.5263 3.73267 51.8717 3.518C52.2263 3.294 52.651 3.182 53.1457 3.182C53.5097 3.182 53.8503 3.252 54.1677 3.392C54.485 3.52267 54.7603 3.72333 54.9937 3.994C55.2363 4.26467 55.4277 4.60533 55.5677 5.016C55.7077 5.42667 55.7777 5.912 55.7777 6.472ZM54.5177 6.528C54.5177 5.8 54.3683 5.24467 54.0697 4.862C53.7803 4.47933 53.407 4.288 52.9497 4.288C52.567 4.288 52.2263 4.39533 51.9277 4.61C51.629 4.82467 51.3443 5.10933 51.0737 5.464V8.67C51.3257 8.80067 51.5683 8.894 51.8017 8.95C52.0443 9.006 52.343 9.034 52.6977 9.034C53.2297 9.034 53.6637 8.824 53.9997 8.404C54.345 7.984 54.5177 7.35867 54.5177 6.528ZM59.9678 10.7C59.8278 11.0733 59.6785 11.3767 59.5198 11.61C59.3611 11.8527 59.1885 12.044 59.0018 12.184C58.8151 12.324 58.6145 12.4173 58.3998 12.464C58.1851 12.52 57.9565 12.548 57.7138 12.548C57.5831 12.548 57.4758 12.5433 57.3918 12.534C57.3171 12.5247 57.2471 12.5107 57.1818 12.492L56.9998 11.358C57.1025 11.386 57.2098 11.4093 57.3218 11.428C57.4431 11.4467 57.5551 11.456 57.6578 11.456C57.9378 11.456 58.1758 11.3813 58.3718 11.232C58.5678 11.0827 58.7311 10.8307 58.8618 10.476L59.0298 10.028L56.5938 3.42L57.8538 3.224L59.6458 8.516L61.3958 3.322H62.6978L59.9678 10.7ZM68.2894 10V4.372H65.2514V10H64.0054V3.322H69.5354V10H68.2894ZM77.2936 6.668C77.2936 7.21867 77.2142 7.70867 77.0556 8.138C76.9062 8.56733 76.6916 8.93133 76.4116 9.23C76.1316 9.52867 75.8002 9.75733 75.4176 9.916C75.0442 10.0653 74.6336 10.14 74.1856 10.14C73.7376 10.14 73.3269 10.0653 72.9536 9.916C72.5802 9.75733 72.2582 9.52867 71.9876 9.23C71.7169 8.93133 71.5022 8.56733 71.3436 8.138C71.1942 7.70867 71.1196 7.21867 71.1196 6.668C71.1196 6.11733 71.1942 5.62733 71.3436 5.198C71.5022 4.76867 71.7169 4.40467 71.9876 4.106C72.2582 3.80733 72.5802 3.57867 72.9536 3.42C73.3269 3.26133 73.7376 3.182 74.1856 3.182C74.6336 3.182 75.0442 3.26133 75.4176 3.42C75.8002 3.57867 76.1316 3.80733 76.4116 4.106C76.6916 4.40467 76.9062 4.76867 77.0556 5.198C77.2142 5.62733 77.2936 6.11733 77.2936 6.668ZM76.0336 6.668C76.0336 6.32267 75.9916 6.00067 75.9076 5.702C75.8329 5.40333 75.7162 5.14667 75.5576 4.932C75.4082 4.708 75.2169 4.53533 74.9836 4.414C74.7502 4.28333 74.4842 4.218 74.1856 4.218C73.8869 4.218 73.6209 4.28333 73.3876 4.414C73.1636 4.53533 72.9769 4.70333 72.8276 4.918C72.6782 5.13267 72.5662 5.394 72.4916 5.702C72.4169 6.00067 72.3796 6.32267 72.3796 6.668C72.3796 7.01333 72.4169 7.33533 72.4916 7.634C72.5756 7.92333 72.6922 8.18 72.8416 8.404C72.9909 8.61867 73.1776 8.79133 73.4016 8.922C73.6256 9.04333 73.8869 9.104 74.1856 9.104C74.4936 9.104 74.7596 9.04333 74.9836 8.922C75.2169 8.80067 75.4082 8.63267 75.5576 8.418C75.7162 8.194 75.8329 7.93733 75.9076 7.648C75.9916 7.34933 76.0336 7.02267 76.0336 6.668ZM84.3124 8.04C84.3124 8.712 84.0697 9.20667 83.5844 9.524C83.0991 9.84133 82.4457 10 81.6244 10H78.8804V3.322H81.6944C82.5064 3.322 83.1037 3.48067 83.4864 3.798C83.8784 4.106 84.0744 4.512 84.0744 5.016C84.0744 5.436 83.9717 5.75333 83.7664 5.968C83.5611 6.17333 83.3091 6.34133 83.0104 6.472H83.0244C83.4071 6.584 83.7197 6.766 83.9624 7.018C84.2051 7.26067 84.3217 7.60133 84.3124 8.04ZM82.8564 5.156C82.8564 4.904 82.7584 4.708 82.5624 4.568C82.3664 4.41867 82.0491 4.344 81.6104 4.344H80.0704V6.024H81.6244C82.0537 6.024 82.3664 5.94933 82.5624 5.8C82.7584 5.65067 82.8564 5.436 82.8564 5.156ZM83.0804 8.012C83.0804 7.68533 82.9684 7.438 82.7444 7.27C82.5204 7.09267 82.1657 7.004 81.6804 7.004H80.0704V8.978H81.6104C82.0677 8.978 82.4271 8.90333 82.6884 8.754C82.9497 8.60467 83.0804 8.35733 83.0804 8.012ZM91.608 6.668C91.608 7.21867 91.5287 7.70867 91.37 8.138C91.2207 8.56733 91.006 8.93133 90.726 9.23C90.446 9.52867 90.1147 9.75733 89.732 9.916C89.3587 10.0653 88.948 10.14 88.5 10.14C88.052 10.14 87.6414 10.0653 87.268 9.916C86.8947 9.75733 86.5727 9.52867 86.302 9.23C86.0314 8.93133 85.8167 8.56733 85.658 8.138C85.5087 7.70867 85.434 7.21867 85.434 6.668C85.434 6.11733 85.5087 5.62733 85.658 5.198C85.8167 4.76867 86.0314 4.40467 86.302 4.106C86.5727 3.80733 86.8947 3.57867 87.268 3.42C87.6414 3.26133 88.052 3.182 88.5 3.182C88.948 3.182 89.3587 3.26133 89.732 3.42C90.1147 3.57867 90.446 3.80733 90.726 4.106C91.006 4.40467 91.2207 4.76867 91.37 5.198C91.5287 5.62733 91.608 6.11733 91.608 6.668ZM90.348 6.668C90.348 6.32267 90.306 6.00067 90.222 5.702C90.1474 5.40333 90.0307 5.14667 89.872 4.932C89.7227 4.708 89.5314 4.53533 89.298 4.414C89.0647 4.28333 88.7987 4.218 88.5 4.218C88.2014 4.218 87.9354 4.28333 87.702 4.414C87.478 4.53533 87.2914 4.70333 87.142 4.918C86.9927 5.13267 86.8807 5.394 86.806 5.702C86.7314 6.00067 86.694 6.32267 86.694 6.668C86.694 7.01333 86.7314 7.33533 86.806 7.634C86.89 7.92333 87.0067 8.18 87.156 8.404C87.3054 8.61867 87.492 8.79133 87.716 8.922C87.94 9.04333 88.2014 9.104 88.5 9.104C88.808 9.104 89.074 9.04333 89.298 8.922C89.5314 8.80067 89.7227 8.63267 89.872 8.418C90.0307 8.194 90.1474 7.93733 90.222 7.648C90.306 7.34933 90.348 7.02267 90.348 6.668ZM93.1948 3.322H94.4128V8.236L97.6048 3.322H98.8648V10H97.6468V5.086L94.4408 10H93.1948V3.322ZM98.0108 0.704C97.9082 1.21733 97.6982 1.61867 97.3808 1.908C97.0635 2.188 96.6062 2.328 96.0088 2.328C95.4488 2.328 95.0055 2.19267 94.6788 1.922C94.3615 1.642 94.1515 1.236 94.0488 0.704L94.8888 0.521999C94.9635 0.783333 95.0895 0.984 95.2668 1.124C95.4535 1.264 95.7102 1.334 96.0368 1.334C96.3542 1.334 96.6015 1.264 96.7788 1.124C96.9562 0.984 97.0822 0.783333 97.1568 0.521999L98.0108 0.704ZM104.866 3.322V5.394C104.866 5.86067 104.983 6.20133 105.216 6.416C105.459 6.63067 105.813 6.738 106.28 6.738C106.719 6.738 107.157 6.69133 107.596 6.598V3.322H108.842V10H107.596V7.69C107.101 7.802 106.616 7.858 106.14 7.858C104.46 7.858 103.62 7.046 103.62 5.422V3.322H104.866ZM114.85 10L114.71 9.104C114.44 9.37467 114.118 9.61733 113.744 9.832C113.371 10.0373 112.909 10.14 112.358 10.14C111.752 10.14 111.271 9.972 110.916 9.636C110.571 9.3 110.398 8.84733 110.398 8.278C110.398 7.858 110.487 7.50333 110.664 7.214C110.842 6.91533 111.108 6.66333 111.462 6.458C111.817 6.25267 112.256 6.08933 112.778 5.968C113.301 5.83733 113.912 5.73467 114.612 5.66V5.38C114.612 4.96 114.496 4.666 114.262 4.498C114.038 4.33 113.73 4.246 113.338 4.246C112.928 4.246 112.531 4.302 112.148 4.414C111.766 4.526 111.392 4.66133 111.028 4.82L110.86 3.742C111.262 3.58333 111.663 3.45267 112.064 3.35C112.466 3.238 112.928 3.182 113.45 3.182C114.272 3.182 114.878 3.35467 115.27 3.7C115.662 4.036 115.858 4.57733 115.858 5.324V10H114.85ZM114.612 6.612C113.996 6.668 113.492 6.752 113.1 6.864C112.718 6.976 112.414 7.102 112.19 7.242C111.976 7.382 111.826 7.536 111.742 7.704C111.668 7.872 111.63 8.04 111.63 8.208C111.63 8.47867 111.714 8.698 111.882 8.866C112.06 9.02467 112.307 9.104 112.624 9.104C112.988 9.104 113.338 9.02 113.674 8.852C114.02 8.684 114.332 8.45533 114.612 8.166V6.612ZM119.318 4.414H117.078V3.322H122.734L122.902 4.414H120.564V10H119.318V4.414Z" fill="#DCDDDE"/>
</svg>
